<?xml version="1.0" encoding="iso-8859-1"?>
<!-- Generator: Adobe Illustrator 16.0.0, SVG Export Plug-In . SVG Version: 6.00 Build 0)  -->
<!DOCTYPE svg PUBLIC "-//W3C//DTD SVG 1.1//EN" "http://www.w3.org/Graphics/SVG/1.1/DTD/svg11.dtd">
<svg version="1.1" id="Capa_1" xmlns="http://www.w3.org/2000/svg" xmlns:xlink="http://www.w3.org/1999/xlink" x="0px" y="0px"
	 width="413.281px" height="413.281px" viewBox="0 0 413.281 413.281" style="enable-background:new 0 0 413.281 413.281;"
	 xml:space="preserve">
<g>
	<g id="Layer_8">
		<path d="M206.649,0C92.521,0,0,92.521,0,206.637c0,114.122,92.521,206.644,206.649,206.644
			c114.116,0,206.631-92.516,206.631-206.644C413.281,92.521,320.759,0,206.649,0z M206.649,367.354
			c-88.774,0-160.72-71.958-160.72-160.717c0-88.762,71.946-160.714,160.72-160.714c88.747,0,160.716,71.952,160.716,160.714
			C367.366,295.396,295.396,367.354,206.649,367.354z M202.709,86.669h42.132V328.13h-50.466V165.401
			c-10.991,3.322-24.337,4.956-40.3,4.956H142.6v-44.614h11.476c36.886,0,44.408-16.987,46.861-29.761L202.709,86.669z"/>
	</g>
</g>
<g>
</g>
<g>
</g>
<g>
</g>
<g>
</g>
<g>
</g>
<g>
</g>
<g>
</g>
<g>
</g>
<g>
</g>
<g>
</g>
<g>
</g>
<g>
</g>
<g>
</g>
<g>
</g>
<g>
</g>
</svg>
