<?xml version="1.0"?>
<svg xmlns="http://www.w3.org/2000/svg" id="Layer_1" data-name="Layer 1" viewBox="0 0 128 128" width="512" height="512"><title>MONEY</title><path d="M42.167,41.5h.375a1.25,1.25,0,0,0,0-2.5h-.375a1.25,1.25,0,0,0,0,2.5Z"/><path d="M85.134,62.486a1.25,1.25,0,0,0,1.25-1.25V51.1a1.25,1.25,0,0,0-1.25-1.25,3.428,3.428,0,0,1-3.425-3.425,1.25,1.25,0,0,0-1.25-1.25H37.8a1.25,1.25,0,0,0-1.25,1.25,3.428,3.428,0,0,1-3.424,3.425,1.25,1.25,0,0,0-1.25,1.25V61.236a1.25,1.25,0,0,0,1.25,1.25,3.428,3.428,0,0,1,3.424,3.424,1.25,1.25,0,0,0,1.25,1.25H80.459a1.25,1.25,0,0,0,0-2.5H66.1a10.978,10.978,0,0,0,0-16.987H79.342a5.943,5.943,0,0,0,4.542,4.542v9.021A1.25,1.25,0,0,0,85.134,62.486Zm-46.22,2.174a5.941,5.941,0,0,0-4.541-4.541v-7.9a5.942,5.942,0,0,0,4.541-4.542H52.157a10.978,10.978,0,0,0,0,16.987Zm28.708-8.494a8.494,8.494,0,1,1-8.494-8.494A8.5,8.5,0,0,1,67.622,56.167Z"/><path d="M101.43,54.666H92.936V40.25A1.25,1.25,0,0,0,91.686,39H46.667a1.25,1.25,0,0,0,0,2.5H90.436V70.835H27.82V41.5h9.1a1.25,1.25,0,0,0,0-2.5H26.57a1.25,1.25,0,0,0-1.25,1.25V72.085a1.25,1.25,0,0,0,1.25,1.25H41.616V76.9a1.25,1.25,0,0,0,1.25,1.25,3.428,3.428,0,0,1,3.425,3.425,1.25,1.25,0,0,0,1.25,1.25H90.2a1.25,1.25,0,0,0,1.25-1.25,3.428,3.428,0,0,1,3.424-3.425,1.25,1.25,0,0,0,0-2.5,5.934,5.934,0,0,0-5.791,4.675H75.813a10.973,10.973,0,0,0,3.938-6.992H91.686a1.25,1.25,0,0,0,1.25-1.25V57.166h7.243V86.5H37.563v-9a1.25,1.25,0,1,0-2.5,0V87.75A1.25,1.25,0,0,0,36.313,89H101.43a1.25,1.25,0,0,0,1.25-1.25V55.916A1.25,1.25,0,0,0,101.43,54.666ZM68.872,80.327a8.457,8.457,0,0,1-7.2-3.983,1.25,1.25,0,0,0-2.117,1.33,11.044,11.044,0,0,0,2.36,2.652H48.658a5.943,5.943,0,0,0-4.542-4.542v-2.45H77.231A8.532,8.532,0,0,1,68.872,80.327Z"/></svg>
